<svg aria-hidden="true" style="position: absolute; width: 0; height: 0; overflow: hidden;" version="1.1" xmlns="http://www.w3.org/2000/svg" xmlns:xlink="http://www.w3.org/1999/xlink">
<defs>
<symbol id="icon-chocolate" viewBox="0 0 32 32">
<path fill="#fcf1e0" style="fill: var(--color1, #fcf1e0)" d="M3.944 20.076l10.777-17.424 0.64-0.674 8.236 5.491 0.056 3.314 2.010 3.28-8.88 14.077-12.839-8.063z"></path>
<path fill="none" stroke="#fd9222" style="stroke: var(--color2, #fd9222)" stroke-linejoin="round" stroke-linecap="round" stroke-miterlimit="4" stroke-width="2.6667" d="M21.635 23.88l-14.185-8.864M11.361 8.599l14.185 8.864M10.63 25.864l11.736-19.25M27.176 14.789c-3.040-1.899-4.234-3.384-2.278-6.592l-9.626-6.015-11.736 19.25 14.186 8.864 9.454-15.507z"></path>
</symbol>
<symbol id="icon-Coin" viewBox="0 0 32 32">
<path fill="#fd9222" style="fill: var(--color2, #fd9222)" d="M16 2.667c-7.333 0-13.333 6-13.333 13.333s6 13.333 13.333 13.333c7.333 0 13.333-6 13.333-13.333s-6-13.333-13.333-13.333zM16 26.667c-5.867 0-10.667-4.8-10.667-10.667s4.8-10.667 10.667-10.667c5.867 0 10.667 4.8 10.667 10.667s-4.8 10.667-10.667 10.667z"></path>
<path fill="#fd9222" style="fill: var(--color2, #fd9222)" d="M17.733 14.667h-3.467c-0.667 0-1.2-0.533-1.2-1.2s0.533-1.2 1.2-1.2h4.933c0.8 0 1.333-0.533 1.333-1.333s-0.533-1.333-1.333-1.333h-1.867v-1.2c0-0.8-0.533-1.333-1.333-1.333s-1.333 0.533-1.333 1.333v1.2h-0.4c-2.133 0-3.867 1.733-3.867 3.867s1.733 3.867 3.867 3.867h3.333c0.667 0 1.2 0.533 1.2 1.2s-0.533 1.2-1.2 1.2h-4.933c-0.8 0-1.333 0.533-1.333 1.333s0.533 1.333 1.333 1.333h2v1.2c0 0.8 0.533 1.333 1.333 1.333s1.333-0.533 1.333-1.333v-1.2h0.4c2.133 0 3.867-1.733 3.867-3.867s-1.733-3.867-3.867-3.867z"></path>
</symbol>
<symbol id="icon-bottom" viewBox="0 0 32 32">
<path d="M16.947 17.867c-0.124 0.125-0.271 0.224-0.434 0.292s-0.337 0.103-0.513 0.103-0.35-0.035-0.513-0.103c-0.162-0.068-0.31-0.167-0.434-0.292l-6.107-6.12c-0.124-0.125-0.271-0.224-0.434-0.292s-0.337-0.103-0.513-0.103c-0.176 0-0.35 0.035-0.513 0.103s-0.31 0.167-0.434 0.292c-0.248 0.25-0.388 0.588-0.388 0.94s0.139 0.69 0.388 0.94l6.12 6.12c0.75 0.749 1.767 1.17 2.827 1.17s2.077-0.421 2.827-1.17l6.12-6.12c0.246-0.248 0.385-0.584 0.387-0.933 0.001-0.175-0.033-0.349-0.099-0.512s-0.164-0.31-0.288-0.435c-0.124-0.125-0.271-0.224-0.434-0.292s-0.337-0.103-0.513-0.103-0.35 0.035-0.513 0.103c-0.162 0.068-0.31 0.167-0.434 0.292l-6.107 6.12z"></path>
</symbol>
<symbol id="icon-hocolate-bar" viewBox="0 0 32 32">
<path fill="#000" style="fill: var(--color3, #000)" d="M13.822 2.413l7.527 7.536 0.080-0.080c0.158-0.154 0.369-0.242 0.589-0.244s0.434 0.080 0.595 0.231l0.873 0.873c0.305 0.305 0.315 0.77 0.083 1.094l-0.004 0.007-0.143 0.192 6.16 6.16c0.55 0.55 0.55 1.43 0 1.98l-9.43 9.43c-0.55 0.55-1.43 0.55-1.98 0l-4.447-4.447c-0.074 0.093-0.167 0.169-0.272 0.224s-0.221 0.086-0.34 0.093c-0.119 0.007-0.237-0.012-0.348-0.054s-0.212-0.108-0.296-0.192l-2.6-2.6c-0.154-0.158-0.242-0.369-0.244-0.589s0.080-0.434 0.231-0.595l0.006-0.007 0.077-0.076-7.527-7.527c-0.55-0.55-0.55-1.43 0-1.98l9.43-9.43c0.55-0.55 1.43-0.55 1.98 0v0.001zM20.404 10.893l-1.756-1.755c-0.055-0.057-0.121-0.102-0.194-0.133s-0.151-0.047-0.231-0.047c-0.079 0-0.158 0.016-0.231 0.047s-0.139 0.076-0.194 0.133l-3.58 3.58c-0.057 0.056-0.102 0.123-0.132 0.197s-0.047 0.153-0.047 0.233 0.016 0.159 0.047 0.233c0.031 0.074 0.076 0.141 0.132 0.197l1.749 1.749 0.61-0.61-1.565-1.565 3.21-3.22 1.569 1.574 0.613-0.613zM15.328 15.965l-1.754-1.754c-0.055-0.057-0.121-0.102-0.194-0.133s-0.152-0.047-0.231-0.047c-0.079 0-0.158 0.016-0.231 0.047s-0.139 0.076-0.194 0.133l-3.59 3.59c-0.24 0.23-0.24 0.61 0 0.85l1.752 1.752 0.616-0.616-1.57-1.564 3.22-3.21 1.564 1.563 0.612-0.611zM8.822 8.193l3.58 3.58c0.24 0.24 0.62 0.24 0.85-0.010l3.58-3.58c0.057-0.054 0.102-0.119 0.133-0.192s0.047-0.15 0.047-0.228h0.010c0-0.15-0.060-0.31-0.18-0.43l-3.58-3.58c-0.056-0.057-0.123-0.102-0.197-0.133s-0.153-0.047-0.233-0.047c-0.080 0-0.159 0.016-0.233 0.047s-0.141 0.076-0.197 0.133l-3.58 3.59c-0.24 0.23-0.24 0.61 0 0.85zM3.752 13.263l3.58 3.58c0.24 0.24 0.62 0.24 0.85 0l3.58-3.58c0.058-0.055 0.104-0.122 0.135-0.196s0.046-0.154 0.045-0.234h0.010c0-0.16-0.060-0.31-0.18-0.43l-3.58-3.58c-0.055-0.057-0.121-0.102-0.194-0.133s-0.151-0.047-0.231-0.047c-0.079 0-0.158 0.016-0.231 0.047s-0.139 0.076-0.194 0.133l-3.59 3.59c-0.24 0.23-0.24 0.61 0 0.85zM10.685 22.017l2.362 2.363 9.636-13.040-0.655-0.655-11.343 11.332z"></path>
<path fill="#fd9222" style="fill: var(--color2, #fd9222)" d="M13.822 2.413l7.527 7.536 0.080-0.080c0.158-0.154 0.369-0.242 0.589-0.244s0.434 0.080 0.595 0.231l0.873 0.873c0.305 0.305 0.315 0.77 0.083 1.094l-0.004 0.007-0.143 0.192 6.16 6.16c0.55 0.55 0.55 1.43 0 1.98l-9.43 9.43c-0.55 0.55-1.43 0.55-1.98 0l-4.447-4.447c-0.074 0.093-0.167 0.169-0.272 0.224s-0.221 0.086-0.34 0.093c-0.119 0.007-0.237-0.012-0.348-0.054s-0.212-0.108-0.296-0.192l-2.6-2.6c-0.154-0.158-0.242-0.369-0.244-0.589s0.080-0.434 0.231-0.595l0.006-0.007 0.077-0.076-7.527-7.527c-0.55-0.55-0.55-1.43 0-1.98l9.43-9.43c0.55-0.55 1.43-0.55 1.98 0v0.001zM20.404 10.893l-1.756-1.755c-0.055-0.057-0.121-0.102-0.194-0.133s-0.151-0.047-0.231-0.047c-0.079 0-0.158 0.016-0.231 0.047s-0.139 0.076-0.194 0.133l-3.58 3.58c-0.057 0.056-0.102 0.123-0.132 0.197s-0.047 0.153-0.047 0.233 0.016 0.159 0.047 0.233c0.031 0.074 0.076 0.141 0.132 0.197l1.749 1.749 0.61-0.61-1.565-1.565 3.21-3.22 1.569 1.574 0.613-0.613zM15.328 15.965l-1.754-1.754c-0.055-0.057-0.121-0.102-0.194-0.133s-0.152-0.047-0.231-0.047c-0.079 0-0.158 0.016-0.231 0.047s-0.139 0.076-0.194 0.133l-3.59 3.59c-0.24 0.23-0.24 0.61 0 0.85l1.752 1.752 0.616-0.616-1.57-1.564 3.22-3.21 1.564 1.563 0.612-0.611zM8.822 8.193l3.58 3.58c0.24 0.24 0.62 0.24 0.85-0.010l3.58-3.58c0.057-0.054 0.102-0.119 0.133-0.192s0.047-0.15 0.047-0.228h0.010c0-0.15-0.060-0.31-0.18-0.43l-3.58-3.58c-0.056-0.057-0.123-0.102-0.197-0.133s-0.153-0.047-0.233-0.047c-0.080 0-0.159 0.016-0.233 0.047s-0.141 0.076-0.197 0.133l-3.58 3.59c-0.24 0.23-0.24 0.61 0 0.85zM3.752 13.263l3.58 3.58c0.24 0.24 0.62 0.24 0.85 0l3.58-3.58c0.058-0.055 0.104-0.122 0.135-0.196s0.046-0.154 0.045-0.234h0.010c0-0.16-0.060-0.31-0.18-0.43l-3.58-3.58c-0.055-0.057-0.121-0.102-0.194-0.133s-0.151-0.047-0.231-0.047c-0.079 0-0.158 0.016-0.231 0.047s-0.139 0.076-0.194 0.133l-3.59 3.59c-0.24 0.23-0.24 0.61 0 0.85zM10.685 22.017l2.362 2.363 9.636-13.040-0.655-0.655-11.343 11.332z"></path>
</symbol>
<symbol id="icon-instagram" viewBox="0 0 32 32">
<path stroke-linejoin="round" stroke-linecap="round" stroke-miterlimit="4" stroke-width="2.6667" d="M22.667 2.667h-13.333c-3.682 0-6.667 2.985-6.667 6.667v13.333c0 3.682 2.985 6.667 6.667 6.667h13.333c3.682 0 6.667-2.985 6.667-6.667v-13.333c0-3.682-2.985-6.667-6.667-6.667z"></path>
<path stroke-linejoin="round" stroke-linecap="round" stroke-miterlimit="4" stroke-width="2.6667" d="M21.334 15.16c0.165 1.11-0.025 2.243-0.542 3.239s-1.334 1.803-2.336 2.307c-1.002 0.504-2.138 0.68-3.245 0.502s-2.131-0.701-2.924-1.494-1.316-1.816-1.494-2.924c-0.178-1.108-0.003-2.243 0.502-3.245s1.312-1.819 2.308-2.336 2.129-0.706 3.239-0.542c1.132 0.168 2.18 0.695 2.989 1.504s1.337 1.857 1.504 2.989z"></path>
<path stroke-linejoin="round" stroke-linecap="round" stroke-miterlimit="4" stroke-width="2.6667" d="M23.333 8.667h0.013"></path>
</symbol>
<symbol id="icon-spoon" viewBox="0 0 32 32">
<path fill="#fd9222" style="fill: var(--color2, #fd9222)" d="M15.451 14.106c-0.783-0.95-1.177-2.116-1.177-3.282 0-4.324 5.181-8.642 10.362-8.642 2.86 0 5.181 2.321 5.181 5.182 0 5.182-4.317 10.364-8.646 10.364-1.166 0-2.332-0.394-3.281-1.177l-12.758 12.761c-0.675 0.675-1.77 0.675-2.445 0s-0.675-1.771 0-2.445l12.764-12.761z"></path>
</symbol>
<symbol id="icon-menu" viewBox="0 0 32 32">
<path stroke-linejoin="round" stroke-linecap="round" stroke-miterlimit="4" stroke-width="2.5" d="M4 16h24M4 8h24M4 24h24"></path>
</symbol>
<symbol id="icon-twitter" viewBox="0 0 32 32">
<path stroke-linejoin="round" stroke-linecap="round" stroke-miterlimit="4" stroke-width="2.6667" d="M30.667 4c-1.277 0.901-2.691 1.589-4.187 2.040-0.803-0.923-1.87-1.578-3.057-1.875s-2.437-0.222-3.58 0.214c-1.143 0.436-2.125 1.213-2.812 2.226s-1.047 2.212-1.031 3.435v1.333c-2.343 0.061-4.665-0.459-6.759-1.513s-4.561-3.563-5.908-5.481c0 0-4.667 12.954 7.333 18.287-2.746 1.864-6.017 2.799-9.333 2.667 12 6.667 26.667 0 26.667-15.333-0.001-0.371-0.037-0.742-0.107-1.107 1.361-1.342 2.321-3.036 2.773-4.893z"></path>
</symbol>
<symbol id="icon-close" viewBox="0 0 32 32">
<path stroke-linejoin="round" stroke-linecap="round" stroke-miterlimit="4" stroke-width="2.9091" d="M24 8l-16 16"></path>
<path stroke-linejoin="round" stroke-linecap="round" stroke-miterlimit="4" stroke-width="2.9091" d="M8 8l16 16"></path>
</symbol>
<symbol id="icon-LeftInput" viewBox="0 0 128 32">
<path fill="#fafafa" style="fill: var(--color1, #fafafa)" d="M0 0h125v32h-125v-32z"></path>
<path fill="#ffd700" style="fill: var(--color2, #ffd700)" d="M31.832 5.058h-31.589v23.508h31.589v-23.508z"></path>
<path fill="#0057b7" style="fill: var(--color3, #0057b7)" d="M0.243 5.058h31.589v11.754h-31.589v-11.754z"></path>
<path fill="#000" style="fill: var(--color4, #000)" d="M54.482 19.642v-7.884h1.512v7.884h-1.512zM51.206 16.42v-1.422h8.064v1.422h-8.064zM64.481 22.144c-0.888 0-1.752-0.138-2.592-0.414-0.828-0.276-1.506-0.648-2.034-1.116l0.828-1.422c0.42 0.396 0.966 0.72 1.638 0.972s1.392 0.378 2.16 0.378c0.936 0 1.662-0.198 2.178-0.594 0.528-0.408 0.792-0.954 0.792-1.638 0-0.66-0.252-1.188-0.756-1.584-0.492-0.408-1.278-0.612-2.358-0.612h-1.008v-1.26l3.744-4.608 0.252 0.72h-6.894v-1.566h8.316v1.224l-3.726 4.59-0.936-0.558h0.594c1.524 0 2.664 0.342 3.42 1.026 0.768 0.684 1.152 1.554 1.152 2.61 0 0.708-0.174 1.356-0.522 1.944s-0.876 1.056-1.584 1.404c-0.696 0.336-1.584 0.504-2.664 0.504zM75.484 22.144c-1.020 0-1.902-0.15-2.646-0.45s-1.32-0.726-1.728-1.278c-0.408-0.564-0.612-1.224-0.612-1.98 0-0.744 0.192-1.374 0.576-1.89 0.396-0.528 0.966-0.924 1.71-1.188 0.744-0.276 1.644-0.414 2.7-0.414s1.956 0.138 2.7 0.414c0.756 0.264 1.332 0.66 1.728 1.188s0.594 1.158 0.594 1.89c0 0.756-0.204 1.416-0.612 1.98-0.408 0.552-0.99 0.978-1.746 1.278s-1.644 0.45-2.664 0.45zM75.484 20.686c1.008 0 1.794-0.204 2.358-0.612 0.576-0.42 0.864-0.984 0.864-1.692 0-0.696-0.288-1.242-0.864-1.638-0.564-0.408-1.35-0.612-2.358-0.612-0.996 0-1.776 0.204-2.34 0.612-0.564 0.396-0.846 0.942-0.846 1.638 0 0.708 0.282 1.272 0.846 1.692 0.564 0.408 1.344 0.612 2.34 0.612zM75.484 15.916c-0.96 0-1.776-0.126-2.448-0.378-0.672-0.264-1.188-0.636-1.548-1.116-0.36-0.492-0.54-1.074-0.54-1.746 0-0.708 0.186-1.314 0.558-1.818 0.384-0.516 0.918-0.912 1.602-1.188s1.476-0.414 2.376-0.414c0.912 0 1.71 0.138 2.394 0.414s1.218 0.672 1.602 1.188c0.384 0.504 0.576 1.11 0.576 1.818 0 0.672-0.18 1.254-0.54 1.746-0.36 0.48-0.882 0.852-1.566 1.116-0.684 0.252-1.506 0.378-2.466 0.378zM75.484 14.764c0.876 0 1.56-0.18 2.052-0.54 0.504-0.36 0.756-0.852 0.756-1.476 0-0.636-0.258-1.134-0.774-1.494s-1.194-0.54-2.034-0.54c-0.84 0-1.512 0.18-2.016 0.54-0.492 0.36-0.738 0.858-0.738 1.494 0 0.624 0.24 1.116 0.72 1.476 0.492 0.36 1.17 0.54 2.034 0.54zM86.942 22.144c-0.984 0-1.866-0.252-2.646-0.756-0.768-0.504-1.38-1.236-1.836-2.196-0.444-0.96-0.666-2.124-0.666-3.492s0.222-2.532 0.666-3.492c0.456-0.96 1.068-1.692 1.836-2.196 0.78-0.504 1.662-0.756 2.646-0.756 0.972 0 1.848 0.252 2.628 0.756s1.392 1.236 1.836 2.196c0.444 0.96 0.666 2.124 0.666 3.492s-0.222 2.532-0.666 3.492c-0.444 0.96-1.056 1.692-1.836 2.196s-1.656 0.756-2.628 0.756zM86.942 20.542c0.66 0 1.236-0.18 1.728-0.54 0.504-0.36 0.894-0.9 1.17-1.62 0.288-0.72 0.432-1.614 0.432-2.682s-0.144-1.962-0.432-2.682c-0.276-0.72-0.666-1.26-1.17-1.62-0.492-0.36-1.068-0.54-1.728-0.54s-1.242 0.18-1.746 0.54c-0.504 0.36-0.9 0.9-1.188 1.62-0.276 0.72-0.414 1.614-0.414 2.682s0.138 1.962 0.414 2.682c0.288 0.72 0.684 1.26 1.188 1.62s1.086 0.54 1.746 0.54z"></path>
</symbol>
<symbol id="icon-Mastercard" viewBox="0 0 51 32">
<path fill="#ed0006" style="fill: var(--color1, #ed0006)" d="M25.6 26.935c-2.556 2.194-5.873 3.518-9.496 3.518-8.086 0-14.641-6.593-14.641-14.726s6.555-14.726 14.641-14.726c3.624 0 6.94 1.324 9.496 3.518 2.557-2.194 5.873-3.518 9.497-3.518 8.086 0 14.64 6.593 14.64 14.726s-6.555 14.726-14.64 14.726c-3.624 0-6.94-1.324-9.497-3.518z"></path>
<path fill="#f9a000" style="fill: var(--color2, #f9a000)" d="M25.6 26.935c3.148-2.701 5.144-6.72 5.144-11.209s-1.996-8.507-5.144-11.208c2.556-2.194 5.873-3.518 9.497-3.518 8.086 0 14.64 6.593 14.64 14.726s-6.555 14.726-14.64 14.726c-3.624 0-6.94-1.324-9.497-3.518z"></path>
<path fill="#ff5e00" style="fill: var(--color3, #ff5e00)" d="M25.6 26.935c3.148-2.701 5.144-6.72 5.144-11.208s-1.996-8.507-5.144-11.208c-3.148 2.701-5.144 6.72-5.144 11.208s1.996 8.507 5.144 11.208z"></path>
</symbol>
<symbol id="icon-x-close" viewBox="0 0 32 32">
<path stroke-linejoin="round" stroke-linecap="round" stroke-miterlimit="4" stroke-width="2.2857" d="M24 8l-16 16"></path>
<path stroke-linejoin="round" stroke-linecap="round" stroke-miterlimit="4" stroke-width="2.2857" d="M8 8l16 16"></path>
</symbol>
<symbol id="icon-play" viewBox="0 0 32 32">
<path fill="#f5f4f4" style="fill: var(--color1, #f5f4f4)" d="M10.909 24v-15.273l14.545 7.636-14.545 7.636z"></path>
<path fill="none" stroke="#fff" style="stroke: var(--color2, #fff)" stroke-linejoin="miter" stroke-linecap="butt" stroke-miterlimit="4" stroke-width="0.7273" d="M31.636 16c0 8.636-7.001 15.636-15.636 15.636s-15.636-7.001-15.636-15.636c0-8.636 7.001-15.636 15.636-15.636s15.636 7.001 15.636 15.636z"></path>
</symbol>
</defs>
</svg>


